<?xml version="1.0" encoding="UTF-8" standalone="no"?>
<!DOCTYPE svg PUBLIC "-//W3C//DTD SVG 1.1//EN"
 "http://www.w3.org/Graphics/SVG/1.1/DTD/svg11.dtd">
<!-- Generated by graphviz version 2.43.0 (0)
 -->
<!-- Title: %3 Pages: 1 -->
<svg width="190pt" height="188pt"
 viewBox="0.00 0.00 190.00 188.00" xmlns="http://www.w3.org/2000/svg" xmlns:xlink="http://www.w3.org/1999/xlink">
<g id="graph0" class="graph" transform="scale(1 1) rotate(0) translate(4 184)">
<title>%3</title>
<polygon fill="white" stroke="transparent" points="-4,4 -4,-184 186,-184 186,4 -4,4"/>
<!-- 0 -->
<g id="node1" class="node">
<title>0</title>
<polygon fill="none" stroke="black" points="73,-180 19,-180 19,-144 73,-144 73,-180"/>
<text text-anchor="middle" x="46" y="-158.3" font-family="Times,serif" font-size="14.00">0</text>
</g>
<!-- 1 -->
<g id="node2" class="node">
<title>1</title>
<ellipse fill="none" stroke="black" cx="27" cy="-90" rx="27" ry="18"/>
<text text-anchor="middle" x="27" y="-86.3" font-family="Times,serif" font-size="14.00">1</text>
</g>
<!-- 0&#45;&gt;1 -->
<g id="edge1" class="edge">
<title>0&#45;&gt;1</title>
<path fill="none" stroke="black" d="M41.3,-143.7C39.19,-135.9 36.64,-126.51 34.28,-117.83"/>
<polygon fill="black" stroke="black" points="37.64,-116.84 31.64,-108.1 30.88,-118.67 37.64,-116.84"/>
</g>
<!-- 4 -->
<g id="node5" class="node">
<title>4</title>
<ellipse fill="none" stroke="black" cx="27" cy="-18" rx="27" ry="18"/>
<text text-anchor="middle" x="27" y="-14.3" font-family="Times,serif" font-size="14.00">4</text>
</g>
<!-- 0&#45;&gt;4 -->
<g id="edge6" class="edge">
<title>0&#45;&gt;4</title>
<path fill="none" stroke="black" d="M54.22,-143.67C61.69,-125.53 70.49,-96.36 63,-72 59.71,-61.31 53.46,-50.85 47.07,-42.08"/>
<polygon fill="black" stroke="black" points="49.65,-39.69 40.75,-33.93 44.12,-43.98 49.65,-39.69"/>
</g>
<!-- 1&#45;&gt;4 -->
<g id="edge5" class="edge">
<title>1&#45;&gt;4</title>
<path fill="none" stroke="black" d="M21.16,-72.41C20.3,-64.51 20.05,-54.85 20.41,-45.94"/>
<polygon fill="black" stroke="black" points="23.9,-46.18 21.12,-35.96 16.92,-45.68 23.9,-46.18"/>
</g>
<!-- 2 -->
<g id="node3" class="node">
<title>2</title>
<ellipse fill="none" stroke="black" cx="137" cy="-90" rx="27" ry="18"/>
<text text-anchor="middle" x="137" y="-86.3" font-family="Times,serif" font-size="14.00">2</text>
</g>
<!-- 2&#45;&gt;2 -->
<g id="edge2" class="edge">
<title>2&#45;&gt;2</title>
<path fill="none" stroke="black" d="M156.9,-102.43C169.69,-105.68 182,-101.53 182,-90 182,-81.62 175.5,-77.14 167.04,-76.56"/>
<polygon fill="black" stroke="black" points="166.5,-73.1 156.9,-77.57 167.19,-80.07 166.5,-73.1"/>
</g>
<!-- 3 -->
<g id="node4" class="node">
<title>3</title>
<ellipse fill="none" stroke="black" cx="137" cy="-162" rx="27" ry="18"/>
<text text-anchor="middle" x="137" y="-158.3" font-family="Times,serif" font-size="14.00">3</text>
</g>
<!-- 3&#45;&gt;2 -->
<g id="edge3" class="edge">
<title>3&#45;&gt;2</title>
<path fill="none" stroke="black" d="M137,-143.7C137,-135.98 137,-126.71 137,-118.11"/>
<polygon fill="black" stroke="black" points="140.5,-118.1 137,-108.1 133.5,-118.1 140.5,-118.1"/>
</g>
<!-- 4&#45;&gt;1 -->
<g id="edge4" class="edge">
<title>4&#45;&gt;1</title>
<path fill="none" stroke="black" d="M32.88,-35.96C33.71,-43.83 33.95,-53.37 33.58,-62.19"/>
<polygon fill="black" stroke="black" points="30.07,-62.18 32.84,-72.41 37.06,-62.69 30.07,-62.18"/>
</g>
</g>
</svg>
