<?xml version="1.0" encoding="UTF-8" standalone="no"?>
<!DOCTYPE svg PUBLIC "-//W3C//DTD SVG 1.1//EN"
 "http://www.w3.org/Graphics/SVG/1.1/DTD/svg11.dtd">
<!-- Generated by graphviz version 2.43.0 (0)
 -->
<!-- Title: %3 Pages: 1 -->
<svg width="710pt" height="512pt"
 viewBox="0.00 0.00 710.00 512.00" xmlns="http://www.w3.org/2000/svg" xmlns:xlink="http://www.w3.org/1999/xlink">
<g id="graph0" class="graph" transform="scale(1 1) rotate(0) translate(4 508)">
<title>%3</title>
<polygon fill="white" stroke="transparent" points="-4,4 -4,-508 706,-508 706,4 -4,4"/>
<!-- A -->
<g id="node1" class="node">
<title>A</title>
<ellipse fill="none" stroke="black" cx="675" cy="-306" rx="27" ry="18"/>
<text text-anchor="middle" x="675" y="-302.3" font-family="Times,serif" font-size="14.00">A</text>
</g>
<!-- B -->
<g id="node2" class="node">
<title>B</title>
<ellipse fill="none" stroke="black" cx="531" cy="-450" rx="27" ry="18"/>
<text text-anchor="middle" x="531" y="-446.3" font-family="Times,serif" font-size="14.00">B</text>
</g>
<!-- A&#45;&#45;B -->
<g id="edge14" class="edge">
<title>A&#45;&#45;B</title>
<path fill="none" stroke="black" d="M659.86,-321.14C632.28,-348.72 574.12,-406.88 546.37,-434.63"/>
<text text-anchor="middle" x="598.12" y="-381.68" font-family="Times,serif" font-size="14.00">1</text>
</g>
<!-- C -->
<g id="node3" class="node">
<title>C</title>
<ellipse fill="none" stroke="black" cx="459" cy="-234" rx="27" ry="18"/>
<text text-anchor="middle" x="459" y="-230.3" font-family="Times,serif" font-size="14.00">C</text>
</g>
<!-- C&#45;&#45;A -->
<g id="edge13" class="edge">
<title>C&#45;&#45;A</title>
<path fill="none" stroke="black" d="M483.36,-242.12C524.95,-255.98 609.2,-284.07 650.73,-297.91"/>
<text text-anchor="middle" x="562.04" y="-273.81" font-family="Times,serif" font-size="14.00">4</text>
</g>
<!-- C&#45;&#45;B -->
<g id="edge12" class="edge">
<title>C&#45;&#45;B</title>
<path fill="none" stroke="black" d="M464.89,-251.68C478.43,-292.28 511.61,-391.83 525.13,-432.38"/>
<text text-anchor="middle" x="490.01" y="-345.83" font-family="Times,serif" font-size="14.00">2</text>
</g>
<!-- D -->
<g id="node4" class="node">
<title>D</title>
<ellipse fill="none" stroke="black" cx="243" cy="-234" rx="27" ry="18"/>
<text text-anchor="middle" x="243" y="-230.3" font-family="Times,serif" font-size="14.00">D</text>
</g>
<!-- D&#45;&#45;B -->
<g id="edge11" class="edge">
<title>D&#45;&#45;B</title>
<path fill="none" stroke="black" d="M261.02,-247.51C312.74,-286.3 461.28,-397.71 512.99,-436.49"/>
<text text-anchor="middle" x="382" y="-345.8" font-family="Times,serif" font-size="14.00">9</text>
</g>
<!-- D&#45;&#45;C -->
<g id="edge10" class="edge">
<title>D&#45;&#45;C</title>
<path fill="none" stroke="black" d="M270.36,-234C311.91,-234 390.45,-234 431.87,-234"/>
<text text-anchor="middle" x="346.11" y="-237.8" font-family="Times,serif" font-size="14.00">1</text>
</g>
<!-- E -->
<g id="node5" class="node">
<title>E</title>
<ellipse fill="none" stroke="black" cx="315" cy="-18" rx="27" ry="18"/>
<text text-anchor="middle" x="315" y="-14.3" font-family="Times,serif" font-size="14.00">E</text>
</g>
<!-- E&#45;&#45;C -->
<g id="edge9" class="edge">
<title>E&#45;&#45;C</title>
<path fill="none" stroke="black" d="M326.06,-34.59C352.86,-74.8 421.06,-177.09 447.9,-217.35"/>
<text text-anchor="middle" x="381.98" y="-129.77" font-family="Times,serif" font-size="14.00">3</text>
</g>
<!-- E&#45;&#45;D -->
<g id="edge8" class="edge">
<title>E&#45;&#45;D</title>
<path fill="none" stroke="black" d="M309.11,-35.68C295.57,-76.28 262.39,-175.83 248.87,-216.38"/>
<text text-anchor="middle" x="273.99" y="-129.83" font-family="Times,serif" font-size="14.00">1</text>
</g>
<!-- F -->
<g id="node6" class="node">
<title>F</title>
<ellipse fill="none" stroke="black" cx="99" cy="-18" rx="27" ry="18"/>
<text text-anchor="middle" x="99" y="-14.3" font-family="Times,serif" font-size="14.00">F</text>
</g>
<!-- F&#45;&#45;D -->
<g id="edge6" class="edge">
<title>F&#45;&#45;D</title>
<path fill="none" stroke="black" d="M110.06,-34.59C136.86,-74.8 205.06,-177.09 231.9,-217.35"/>
<text text-anchor="middle" x="165.98" y="-129.77" font-family="Times,serif" font-size="14.00">3</text>
</g>
<!-- F&#45;&#45;E -->
<g id="edge7" class="edge">
<title>F&#45;&#45;E</title>
<path fill="none" stroke="black" d="M126.36,-18C167.91,-18 246.45,-18 287.87,-18"/>
<text text-anchor="middle" x="202.11" y="-21.8" font-family="Times,serif" font-size="14.00">1</text>
</g>
<!-- G -->
<g id="node7" class="node">
<title>G</title>
<ellipse fill="none" stroke="black" cx="27" cy="-378" rx="27" ry="18"/>
<text text-anchor="middle" x="27" y="-374.3" font-family="Times,serif" font-size="14.00">G</text>
</g>
<!-- G&#45;&#45;B -->
<g id="edge3" class="edge">
<title>G&#45;&#45;B</title>
<path fill="none" stroke="black" d="M53.74,-381.82C141.05,-394.29 417.11,-433.73 504.32,-446.19"/>
<text text-anchor="middle" x="274.03" y="-417.8" font-family="Times,serif" font-size="14.00">4</text>
</g>
<!-- G&#45;&#45;D -->
<g id="edge4" class="edge">
<title>G&#45;&#45;D</title>
<path fill="none" stroke="black" d="M46.17,-365.22C87.16,-337.89 182.92,-274.05 223.87,-246.75"/>
<text text-anchor="middle" x="130.02" y="-309.79" font-family="Times,serif" font-size="14.00">1</text>
</g>
<!-- G&#45;&#45;F -->
<g id="edge5" class="edge">
<title>G&#45;&#45;F</title>
<path fill="none" stroke="black" d="M30.57,-360.15C42.83,-298.86 83.12,-97.41 95.41,-35.96"/>
<text text-anchor="middle" x="57.99" y="-201.85" font-family="Times,serif" font-size="14.00">6</text>
</g>
<!-- H -->
<g id="node8" class="node">
<title>H</title>
<ellipse fill="none" stroke="black" cx="243" cy="-486" rx="27" ry="18"/>
<text text-anchor="middle" x="243" y="-482.3" font-family="Times,serif" font-size="14.00">H</text>
</g>
<!-- H&#45;&#45;B -->
<g id="edge1" class="edge">
<title>H&#45;&#45;B</title>
<path fill="none" stroke="black" d="M269.58,-482.68C324.3,-475.84 449.04,-460.24 504.07,-453.37"/>
<text text-anchor="middle" x="381.82" y="-471.82" font-family="Times,serif" font-size="14.00">2</text>
</g>
<!-- H&#45;&#45;G -->
<g id="edge2" class="edge">
<title>H&#45;&#45;G</title>
<path fill="none" stroke="black" d="M221.1,-475.05C179.59,-454.3 89.94,-409.47 48.64,-388.82"/>
<text text-anchor="middle" x="125.37" y="-435.73" font-family="Times,serif" font-size="14.00">14</text>
</g>
</g>
</svg>
