<?xml version="1.0" encoding="UTF-8" standalone="no"?>
<!DOCTYPE svg PUBLIC "-//W3C//DTD SVG 1.1//EN"
 "http://www.w3.org/Graphics/SVG/1.1/DTD/svg11.dtd">
<!-- Generated by graphviz version 2.43.0 (0)
 -->
<!-- Title: %3 Pages: 1 -->
<svg width="459pt" height="727pt"
 viewBox="0.00 0.00 459.22 727.15" xmlns="http://www.w3.org/2000/svg" xmlns:xlink="http://www.w3.org/1999/xlink">
<g id="graph0" class="graph" transform="scale(1 1) rotate(0) translate(4 723.15)">
<title>%3</title>
<polygon fill="white" stroke="transparent" points="-4,4 -4,-723.15 455.22,-723.15 455.22,4 -4,4"/>
<!-- B -->
<g id="node1" class="node">
<title>B</title>
<polygon fill="aqua" stroke="black" points="212.67,-681.98 173.37,-681.98 161.22,-719.36 149.08,-681.98 109.78,-681.98 141.57,-658.88 129.43,-621.5 161.22,-644.6 193.02,-621.5 180.87,-658.88 212.67,-681.98"/>
<text text-anchor="middle" x="161.22" y="-666.73" font-family="Times,serif" font-size="14.00">B</text>
</g>
<!-- G -->
<g id="node2" class="node">
<title>G</title>
<polygon fill="aqua" stroke="black" points="183.67,-215.7 144.37,-215.7 132.22,-253.07 120.08,-215.7 80.78,-215.7 112.57,-192.59 100.43,-155.21 132.22,-178.32 164.02,-155.21 151.87,-192.59 183.67,-215.7"/>
<text text-anchor="middle" x="132.22" y="-200.44" font-family="Times,serif" font-size="14.00">G</text>
</g>
<!-- B&#45;&#45;G -->
<g id="edge1" class="edge">
<title>B&#45;&#45;G</title>
<path fill="none" stroke="red" d="M131.99,-629.41C119.93,-610.49 107.36,-586.98 101.22,-563.72 68.92,-441.38 107.12,-288.22 124.49,-229.55"/>
<text text-anchor="middle" x="96.72" y="-432.29" font-family="Times,serif" font-size="20.00">4</text>
</g>
<!-- H -->
<g id="node3" class="node">
<title>H</title>
<polygon fill="aqua" stroke="black" points="102.67,-60.27 63.37,-60.27 51.22,-97.65 39.08,-60.27 -0.22,-60.27 31.57,-37.16 19.43,0.22 51.22,-22.89 83.02,0.22 70.87,-37.16 102.67,-60.27"/>
<text text-anchor="middle" x="51.22" y="-45.01" font-family="Times,serif" font-size="14.00">H</text>
</g>
<!-- B&#45;&#45;H -->
<g id="edge2" class="edge">
<title>B&#45;&#45;H</title>
<path fill="none" stroke="red" d="M140.87,-656.54C106.63,-633.09 41.22,-579.92 41.22,-516 41.22,-516 41.22,-516 41.22,-203.14 41.22,-163.1 44.65,-117.31 47.5,-86.25"/>
<text text-anchor="middle" x="47.72" y="-354.57" font-family="Times,serif" font-size="20.00">2</text>
</g>
<!-- A -->
<g id="node4" class="node">
<title>A</title>
<polygon fill="aqua" stroke="black" points="212.67,-526.55 173.37,-526.55 161.22,-563.93 149.08,-526.55 109.78,-526.55 141.57,-503.45 129.43,-466.07 161.22,-489.17 193.02,-466.07 180.87,-503.45 212.67,-526.55"/>
<text text-anchor="middle" x="161.22" y="-511.3" font-family="Times,serif" font-size="14.00">A</text>
</g>
<!-- B&#45;&#45;A -->
<g id="edge3" class="edge">
<title>B&#45;&#45;A</title>
<path fill="none" stroke="red" d="M161.22,-644.44C161.22,-622.7 161.22,-590.59 161.22,-563.92"/>
<text text-anchor="middle" x="167.72" y="-587.72" font-family="Times,serif" font-size="20.00">1</text>
</g>
<!-- G&#45;&#45;H -->
<g id="edge13" class="edge">
<title>G&#45;&#45;H</title>
<path fill="none" stroke="red" d="M110.94,-162.83C94.72,-132.11 73.15,-91.25 60.87,-67.99"/>
<text text-anchor="middle" x="110.22" y="-121.43" font-family="Times,serif" font-size="20.00">14</text>
</g>
<!-- D -->
<g id="node6" class="node">
<title>D</title>
<polygon fill="aqua" stroke="black" points="340.67,-60.27 301.37,-60.27 289.22,-97.65 277.08,-60.27 237.78,-60.27 269.57,-37.16 257.43,0.22 289.22,-22.89 321.02,0.22 308.87,-37.16 340.67,-60.27"/>
<text text-anchor="middle" x="289.22" y="-45.01" font-family="Times,serif" font-size="14.00">D</text>
</g>
<!-- G&#45;&#45;D -->
<g id="edge14" class="edge">
<title>G&#45;&#45;D</title>
<path fill="none" stroke="red" d="M158.65,-171.74C173.54,-154.57 192.81,-133.24 211.22,-115.43 232.6,-94.75 259.51,-72.91 275.49,-60.34"/>
<text text-anchor="middle" x="217.72" y="-121.43" font-family="Times,serif" font-size="20.00">1</text>
</g>
<!-- C -->
<g id="node5" class="node">
<title>C</title>
<polygon fill="aqua" stroke="black" points="253.67,-371.12 214.37,-371.12 202.22,-408.5 190.08,-371.12 150.78,-371.12 182.57,-348.02 170.43,-310.64 202.22,-333.75 234.02,-310.64 221.87,-348.02 253.67,-371.12"/>
<text text-anchor="middle" x="202.22" y="-355.87" font-family="Times,serif" font-size="14.00">C</text>
</g>
<!-- A&#45;&#45;C -->
<g id="edge4" class="edge">
<title>A&#45;&#45;C</title>
<path fill="none" stroke="red" d="M169.42,-483.32C176.94,-455.16 187.98,-413.87 195.13,-387.11"/>
<text text-anchor="middle" x="189.72" y="-432.29" font-family="Times,serif" font-size="20.00">4</text>
</g>
<!-- C&#45;&#45;B -->
<g id="edge5" class="edge">
<title>C&#45;&#45;B</title>
<path fill="none" stroke="red" d="M209.92,-385.1C220.86,-423.75 237.81,-500.87 221.22,-563.72 215.08,-586.98 202.51,-610.49 190.46,-629.41"/>
<text text-anchor="middle" x="233.72" y="-510" font-family="Times,serif" font-size="20.00">2</text>
</g>
<!-- C&#45;&#45;D -->
<g id="edge6" class="edge">
<title>C&#45;&#45;D</title>
<path fill="none" stroke="red" d="M213.82,-325.27C217.3,-314.93 221.03,-303.46 224.22,-292.86 236.59,-251.75 268.27,-130.49 282.32,-76.35"/>
<text text-anchor="middle" x="266.72" y="-199.14" font-family="Times,serif" font-size="20.00">1</text>
</g>
<!-- E -->
<g id="node7" class="node">
<title>E</title>
<polygon fill="aqua" stroke="black" points="419.67,-215.7 380.37,-215.7 368.22,-253.07 356.08,-215.7 316.78,-215.7 348.57,-192.59 336.43,-155.21 368.22,-178.32 400.02,-155.21 387.87,-192.59 419.67,-215.7"/>
<text text-anchor="middle" x="368.22" y="-200.44" font-family="Times,serif" font-size="14.00">E</text>
</g>
<!-- C&#45;&#45;E -->
<g id="edge7" class="edge">
<title>C&#45;&#45;E</title>
<path fill="none" stroke="red" d="M225.65,-336.92C261.58,-303.71 328.98,-241.41 356.28,-216.18"/>
<text text-anchor="middle" x="300.72" y="-276.86" font-family="Times,serif" font-size="20.00">3</text>
</g>
<!-- D&#45;&#45;B -->
<g id="edge8" class="edge">
<title>D&#45;&#45;B</title>
<path fill="none" stroke="red" d="M289.22,-97.74C289.22,-127.99 289.22,-167.85 289.22,-203.14 289.22,-516 289.22,-516 289.22,-516 289.22,-582.61 217.22,-635.61 181.22,-657.95"/>
<text text-anchor="middle" x="295.72" y="-354.57" font-family="Times,serif" font-size="20.00">9</text>
</g>
<!-- E&#45;&#45;D -->
<g id="edge12" class="edge">
<title>E&#45;&#45;D</title>
<path fill="none" stroke="red" d="M347.88,-163.63C332.06,-132.91 310.83,-91.69 298.73,-68.19"/>
<text text-anchor="middle" x="339.72" y="-121.43" font-family="Times,serif" font-size="20.00">1</text>
</g>
<!-- F -->
<g id="node8" class="node">
<title>F</title>
<polygon fill="aqua" stroke="black" points="422.67,-371.12 383.37,-371.12 371.22,-408.5 359.08,-371.12 319.78,-371.12 351.57,-348.02 339.43,-310.64 371.22,-333.75 403.02,-310.64 390.87,-348.02 422.67,-371.12"/>
<text text-anchor="middle" x="371.22" y="-355.87" font-family="Times,serif" font-size="14.00">F</text>
</g>
<!-- F&#45;&#45;G -->
<g id="edge11" class="edge">
<title>F&#45;&#45;G</title>
<path fill="none" stroke="red" d="M348.78,-339.72C336.71,-330.2 321.24,-318.99 306.22,-310.86 286.18,-300.02 278.39,-303.45 258.22,-292.86 214.09,-269.69 167.2,-233.57 145.13,-215.78"/>
<text text-anchor="middle" x="264.72" y="-276.86" font-family="Times,serif" font-size="20.00">6</text>
</g>
<!-- F&#45;&#45;D -->
<g id="edge10" class="edge">
<title>F&#45;&#45;D</title>
<path fill="none" stroke="red" d="M402.14,-313.23C426.89,-270.86 453.61,-206.63 428.22,-155.43 404.52,-107.62 347.71,-75.58 314.52,-60.23"/>
<text text-anchor="middle" x="444.72" y="-199.14" font-family="Times,serif" font-size="20.00">3</text>
</g>
<!-- F&#45;&#45;E -->
<g id="edge9" class="edge">
<title>F&#45;&#45;E</title>
<path fill="none" stroke="red" d="M370.73,-333.24C370.29,-310.77 369.63,-277.41 369.11,-250.37"/>
<text text-anchor="middle" x="375.72" y="-276.86" font-family="Times,serif" font-size="20.00">1</text>
</g>
</g>
</svg>
