<?xml version="1.0" encoding="UTF-8" standalone="no"?>
<!DOCTYPE svg PUBLIC "-//W3C//DTD SVG 1.1//EN"
 "http://www.w3.org/Graphics/SVG/1.1/DTD/svg11.dtd">
<!-- Generated by graphviz version 2.43.0 (0)
 -->
<!-- Title: %3 Pages: 1 -->
<svg width="710pt" height="548pt"
 viewBox="0.00 0.00 710.00 548.00" xmlns="http://www.w3.org/2000/svg" xmlns:xlink="http://www.w3.org/1999/xlink">
<g id="graph0" class="graph" transform="scale(1 1) rotate(0) translate(4 544)">
<title>%3</title>
<polygon fill="white" stroke="transparent" points="-4,4 -4,-544 706,-544 706,4 -4,4"/>
<!-- A -->
<g id="node1" class="node">
<title>A</title>
<image xlink:href="/home/user/tp-r504/TP6/router.png" width="54px" height="36px" preserveAspectRatio="xMinYMin meet" x="648" y="-324"/>
<text text-anchor="middle" x="675" y="-301" font-family="Times,serif" font-size="20.00" fill="red">A</text>
</g>
<!-- C -->
<g id="node3" class="node">
<title>C</title>
<image xlink:href="/home/user/tp-r504/TP6/router.png" width="54px" height="36px" preserveAspectRatio="xMinYMin meet" x="432" y="-252"/>
<text text-anchor="middle" x="459" y="-229" font-family="Times,serif" font-size="20.00" fill="red">C</text>
</g>
<!-- A&#45;&#45;C -->
<g id="edge4" class="edge">
<title>A&#45;&#45;C</title>
<path fill="none" stroke="black" d="M647.64,-296.88C606.09,-283.03 527.55,-256.85 486.13,-243.04"/>
<text text-anchor="middle" x="560.39" y="-275.96" font-family="Times,serif" font-size="20.00" fill="blue">4</text>
</g>
<!-- B -->
<g id="node2" class="node">
<title>B</title>
<image xlink:href="/home/user/tp-r504/TP6/router.png" width="54px" height="36px" preserveAspectRatio="xMinYMin meet" x="504" y="-468"/>
<text text-anchor="middle" x="531" y="-445" font-family="Times,serif" font-size="20.00" fill="red">B</text>
</g>
<!-- B&#45;&#45;A -->
<g id="edge3" class="edge">
<title>B&#45;&#45;A</title>
<path fill="none" stroke="black" d="M549.24,-431.76C576.94,-404.06 629.3,-351.7 656.91,-324.09"/>
<text text-anchor="middle" x="596.57" y="-383.93" font-family="Times,serif" font-size="20.00" fill="blue">1</text>
</g>
<!-- G -->
<g id="node7" class="node">
<title>G</title>
<image xlink:href="/home/user/tp-r504/TP6/router.png" width="54px" height="36px" preserveAspectRatio="xMinYMin meet" x="72" y="-396"/>
<text text-anchor="middle" x="99" y="-373" font-family="Times,serif" font-size="20.00" fill="red">G</text>
</g>
<!-- B&#45;&#45;G -->
<g id="edge1" class="edge">
<title>B&#45;&#45;G</title>
<path fill="none" stroke="black" d="M503.98,-445.5C426.4,-432.57 203.58,-395.43 126.01,-382.5"/>
<text text-anchor="middle" x="308.49" y="-420" font-family="Times,serif" font-size="20.00" fill="blue">4</text>
</g>
<!-- H -->
<g id="node8" class="node">
<title>H</title>
<image xlink:href="/home/user/tp-r504/TP6/router.png" width="54px" height="36px" preserveAspectRatio="xMinYMin meet" x="216" y="-540"/>
<text text-anchor="middle" x="243" y="-517" font-family="Times,serif" font-size="20.00" fill="red">H</text>
</g>
<!-- B&#45;&#45;H -->
<g id="edge2" class="edge">
<title>B&#45;&#45;H</title>
<path fill="none" stroke="black" d="M503.91,-456.77C449.02,-470.5 325.24,-501.44 270.23,-515.19"/>
<text text-anchor="middle" x="380.57" y="-491.98" font-family="Times,serif" font-size="20.00" fill="blue">2</text>
</g>
<!-- C&#45;&#45;B -->
<g id="edge5" class="edge">
<title>C&#45;&#45;B</title>
<path fill="none" stroke="black" d="M465.01,-252.04C478.57,-292.7 511.37,-391.1 524.95,-431.85"/>
<text text-anchor="middle" x="488.48" y="-347.95" font-family="Times,serif" font-size="20.00" fill="blue">2</text>
</g>
<!-- D -->
<g id="node4" class="node">
<title>D</title>
<image xlink:href="/home/user/tp-r504/TP6/router.png" width="54px" height="36px" preserveAspectRatio="xMinYMin meet" x="216" y="-252"/>
<text text-anchor="middle" x="243" y="-229" font-family="Times,serif" font-size="20.00" fill="red">D</text>
</g>
<!-- C&#45;&#45;D -->
<g id="edge6" class="edge">
<title>C&#45;&#45;D</title>
<path fill="none" stroke="black" d="M431.64,-234C390.09,-234 311.55,-234 270.13,-234"/>
<text text-anchor="middle" x="344.39" y="-240" font-family="Times,serif" font-size="20.00" fill="blue">1</text>
</g>
<!-- E -->
<g id="node5" class="node">
<title>E</title>
<image xlink:href="/home/user/tp-r504/TP6/router.png" width="54px" height="36px" preserveAspectRatio="xMinYMin meet" x="216" y="-36"/>
<text text-anchor="middle" x="243" y="-13" font-family="Times,serif" font-size="20.00" fill="red">E</text>
</g>
<!-- C&#45;&#45;E -->
<g id="edge7" class="edge">
<title>C&#45;&#45;E</title>
<path fill="none" stroke="black" d="M440.96,-215.96C400.3,-175.3 301.9,-76.9 261.15,-36.15"/>
<text text-anchor="middle" x="344.55" y="-132.05" font-family="Times,serif" font-size="20.00" fill="blue">3</text>
</g>
<!-- D&#45;&#45;B -->
<g id="edge8" class="edge">
<title>D&#45;&#45;B</title>
<path fill="none" stroke="black" d="M267.06,-252.04C321.27,-292.7 452.47,-391.1 506.81,-431.85"/>
<text text-anchor="middle" x="380.43" y="-347.95" font-family="Times,serif" font-size="20.00" fill="blue">9</text>
</g>
<!-- E&#45;&#45;D -->
<g id="edge12" class="edge">
<title>E&#45;&#45;D</title>
<path fill="none" stroke="black" d="M243,-36.04C243,-76.7 243,-175.1 243,-215.85"/>
<text text-anchor="middle" x="236.5" y="-131.95" font-family="Times,serif" font-size="20.00" fill="blue">1</text>
</g>
<!-- F -->
<g id="node6" class="node">
<title>F</title>
<image xlink:href="/home/user/tp-r504/TP6/router.png" width="54px" height="36px" preserveAspectRatio="xMinYMin meet" x="0" y="-108"/>
<text text-anchor="middle" x="27" y="-85" font-family="Times,serif" font-size="20.00" fill="red">F</text>
</g>
<!-- F&#45;&#45;D -->
<g id="edge10" class="edge">
<title>F&#45;&#45;D</title>
<path fill="none" stroke="black" d="M54.36,-108.24C95.91,-135.94 174.45,-188.3 215.87,-215.91"/>
<text text-anchor="middle" x="128.61" y="-168.07" font-family="Times,serif" font-size="20.00" fill="blue">3</text>
</g>
<!-- F&#45;&#45;E -->
<g id="edge9" class="edge">
<title>F&#45;&#45;E</title>
<path fill="none" stroke="black" d="M54.36,-80.88C95.91,-67.03 174.45,-40.85 215.87,-27.04"/>
<text text-anchor="middle" x="128.61" y="-59.96" font-family="Times,serif" font-size="20.00" fill="blue">1</text>
</g>
<!-- F&#45;&#45;G -->
<g id="edge11" class="edge">
<title>F&#45;&#45;G</title>
<path fill="none" stroke="black" d="M31.5,-108.02C44.43,-159.74 81.57,-308.28 94.5,-359.99"/>
<text text-anchor="middle" x="56.5" y="-240" font-family="Times,serif" font-size="20.00" fill="blue">6</text>
</g>
<!-- G&#45;&#45;D -->
<g id="edge14" class="edge">
<title>G&#45;&#45;D</title>
<path fill="none" stroke="black" d="M117.24,-359.76C144.94,-332.06 197.3,-279.7 224.91,-252.09"/>
<text text-anchor="middle" x="164.57" y="-311.93" font-family="Times,serif" font-size="20.00" fill="blue">1</text>
</g>
<!-- G&#45;&#45;H -->
<g id="edge13" class="edge">
<title>G&#45;&#45;H</title>
<path fill="none" stroke="black" d="M117.24,-396.24C144.94,-423.94 197.3,-476.3 224.91,-503.91"/>
<text text-anchor="middle" x="158.07" y="-456.07" font-family="Times,serif" font-size="20.00" fill="blue">14</text>
</g>
</g>
</svg>
